<svg xmlns="http://www.w3.org/2000/svg" enable-background="new 0 0 513.333 513.333" viewBox="0 0 513.333 513.333" id="Clew">
  <path d="M410.579,317.869c34.7-47.84,56.722-109.029,39.693-164.859c-4.995-16.395-11.25-30.561-21.966-44.16
		c-23.639-30.232-64.037-46.378-102.186-40.197c-27.881,4.51-48.608,15.172-62.007,24.281l-4.544-47.118
		c26.136-7.997,17.96-48.281-8.931-45.696l-29.979,2.892c-26.456,2.552-27.301,42.418-1.054,46.406l3.434,35.6
		c-12.287-6.559-28.659-13.09-48.903-16.364c-4.086-0.67-7.94,2.116-8.602,6.206c-0.662,4.089,2.117,7.939,6.206,8.601
		c23.784,3.848,41.607,12.613,53.073,19.956l7.969,82.619l-23.265,23.265L101.282,101.063c5.076-3.728,19.032-12.955,37.716-17.086
		c4.044-0.895,6.598-4.897,5.704-8.942c-0.895-4.045-4.899-6.591-8.942-5.704c-16.632,3.677-33.251,11.801-45.178,21.032
		L68.206,67.987c15.058-22.742-16.728-48.616-35.855-29.492L11.054,59.791c-18.892,18.892,5.912,49.932,28.599,36.387l24.283,24.283
		c-8.151,13.531-12,26.117-13.962,32.546c-16.392,53.741,2.117,135.295,70.438,198.648c-5.644,5.641-0.781,0.98-13.178,13.377
		c-10.928,10.929-12.56,26.432-3.71,35.296c0.909,0.909,24.058,24.053,25.428,25.423c3.824,3.824,3.342,10.526-1.073,14.942
		c-4.414,4.413-11.116,4.896-14.94,1.073c-48.137-48.141-1.099-1.1-39.208-39.209c-9.917-9.915-26.334-9.635-36.6,0.629
		c-10.403,10.404-10.4,26.892-0.629,36.604l8.436,8.436c2.51,2.51,1.516,9.117-3.571,14.204L7.644,496.152
		c-2.929,2.93-2.929,7.678,0,10.607c2.93,2.929,7.678,2.928,10.606,0l33.723-33.723c10.932-10.932,12.5-26.489,3.571-35.419
		c-11.562-11.56-7.57-7.577-8.434-8.438c-4.069-4.069-3.787-10.972,0.627-15.387c4.414-4.416,11.317-4.698,15.386-0.628
		l39.208,39.208c4.648,4.647,10.807,6.95,17.09,6.95c22.877,0,36.1-28.214,20.137-44.179c-5.133-5.133-20.297-20.291-25.423-25.418
		c-2.448-2.452-1.384-8.999,3.706-14.088c12.082-12.081,8.079-8.28,13.789-13.99c32.923,28.222,78.738,58.031,114.998,77.161
		c3.996,2.106,6.974,0.031,10.348-1.784l5.176,53.678c0.309,3.214,0.651,2.901,15.914,20.107c3.354,3.782,9.435,3.229,12.043-1.119
		l10.95-18.26c1.808-3.015,1.614,1.449-5.919-76.707c13.269-8.29,25.963-16.771,37.844-25.295l41.492,42.259
		c2.421,2.467,2.724,1.968,25.438,4.913c4.832,0.63,8.984-3.464,8.413-8.313l-2.526-21.468c-0.364-3.66,0.758-1.589-39.831-42.926
		C385.128,347.762,400.125,332.301,410.579,317.869z M437.335,162.425c4.634,17.936,4.417,34.138,2.737,47.532l-54.668,4.398
		L437.335,162.425z M369.04,230.72l68.409-5.504c-2.198,10.364-4.012,17.351-7.738,27.222l-89.579,7.191L369.04,230.72z
		 M336.25,82.566l-66.703,66.703l-3.76-38.982C286.24,94.118,313.795,84.202,336.25,82.566z M215.461,27.862L215.3,26.19
		c-0.4-4.148,2.65-7.85,6.798-8.249c32.025-3.088,30.182-2.927,30.709-2.927c3.844,0,7.143,2.932,7.519,6.833l0.161,1.67
		c0.4,4.148-2.65,7.85-6.798,8.25l-29.979,2.891C219.555,35.073,215.861,32.008,215.461,27.862z M234.603,48.682l10.079-0.972
		l11.12,115.303l-9.276,9.276L234.603,48.682z M105.232,313.584c-4.495-5.741-9.413-12.944-13.225-18.938l34.974-2.812
		L105.232,313.584z M143.344,275.471l-59.851,4.812c-4.763-8.654-8.824-17.253-12.107-25.621l100.878-8.112L143.344,275.471z
		 M22.749,82.176c-1.665-1.664-3.302-3.181-3.302-6.433c0-4.18,0.357-3.488,23.51-26.641c2.955-2.955,7.733-2.957,10.692,0.002
		c1.665,1.664,3.302,3.181,3.302,6.433c0,3.841-1.594,4.72-9.368,12.499C32.582,83.037,32.246,84.392,28.097,84.392
		C26.078,84.392,24.179,83.605,22.749,82.176z M57.36,79.473c0.87-0.87-10.286-11.405,141.551,140.432l-7.158,7.158
		c-30.642-30.642,57.891,57.89-140.989-140.989L57.36,79.473z M64.321,157.385c1.613-5.287,4.639-15.188,10.592-25.947
		l99.866,99.867l-108.393,8.712C56.392,205.4,57.6,179.421,64.321,157.385z M243.543,239.204c-2.926-2.933-7.675-2.938-10.607-0.013
		L131.029,341.044c-5.885-5.438-11.251-10.792-16.04-16.004c73.291-73.291,82.029-82.023,82.14-82.136
		c0.37-0.35,17.6-17.597,17.694-17.698c67.974-67.975,97.892-97.892,141.787-141.787c9.538,1.508,17.901,4.381,24.63,7.396
		C253.297,218.759,276.715,195.407,257.873,214.063c-2.943,2.914-2.966,7.663-0.052,10.606c2.914,2.943,7.664,2.966,10.606,0.052
		c17.906-17.73-3.389,3.523,126.545-126.423c6.462,4.224,12.198,9.231,17.254,14.781L245.134,280.173
		c-2.929,2.929-2.929,7.678,0,10.606c2.93,2.929,7.678,2.928,10.606,0l165.739-165.74c4.19,6.4,7.736,13.445,10.724,21.303
		c-64.001,64.001-193.245,193.245-241.28,241.28c-6.484-4.385-12.779-8.8-18.818-13.204l59.427-59.375
		c2.93-2.928,2.933-7.677,0.005-10.606c-2.928-2.93-7.677-2.933-10.606-0.005l-60.953,60.9c-6.253-4.814-12.177-9.604-17.712-14.32
		c89.225-89.225,65.515-65.535,101.263-101.201C246.463,246.885,246.468,242.136,243.543,239.204z M250.132,423.677
		c-8.941-4.824-25.805-14.289-46.435-27.614l44.991-44.991l6.723,69.717C253.587,421.8,251.819,422.767,250.132,423.677z
		 M282.504,493.21l-5.654-6.375c-1.756-18.207-12.717-131.869-14.418-149.507l9.277-9.277
		c1.699,17.617,13.739,142.461,15.216,157.785L282.504,493.21z M293.528,398.003l-5.212-54.067l34.026,34.656
		C313.184,385.112,303.545,391.605,293.528,398.003z M392.305,420.49l-8.942-1.159l-97.337-99.139l-0.572-5.888l5.449-5.449
		l100.283,102.133L392.305,420.49z M355.429,353.16l-53.918-54.912l22.258-22.258l99.271-7.97
		C405.26,305.316,384.384,328.918,355.429,353.16z" fill="#ffb6d6" class="color000000 svgShape"></path>
  <path d="M489.248 341.096l-19.78-8.043-8.042-19.779c-2.528-6.215-11.364-6.224-13.896 0l-8.042 19.779-19.78 8.043c-6.215 2.528-6.223 11.366 0 13.895l19.779 8.042 8.042 19.78c2.528 6.215 11.364 6.224 13.896 0l8.042-19.78 19.78-8.042C495.463 352.465 495.471 343.625 489.248 341.096zM454.478 360.074c-3.866-9.51-2.644-8.214-12.032-12.031 9.402-3.824 8.166-2.524 12.032-12.032 3.866 9.508 2.641 8.212 12.032 12.032C457.113 351.863 458.345 350.561 454.478 360.074zM9.122 347.583l19.78 8.043 8.042 19.779c2.528 6.215 11.364 6.224 13.896 0l8.042-19.779 19.78-8.043c6.215-2.528 6.224-11.363 0-13.895l-19.78-8.043-8.042-19.779c-2.528-6.215-11.364-6.224-13.896 0l-8.042 19.779-19.78 8.043C2.907 336.214 2.898 345.054 9.122 347.583zM43.892 328.603c3.864 9.505 2.618 8.204 12.033 12.032-9.403 3.824-8.167 2.523-12.033 12.032-3.866-9.508-2.641-8.213-12.033-12.032C41.256 336.814 40.024 338.116 43.892 328.603zM504.306 39.919l-19.779-8.042-8.042-19.78c-2.528-6.215-11.364-6.224-13.896 0l-8.042 19.78-19.779 8.042c-6.216 2.525-6.224 11.363 0 13.895l19.78 8.043 8.042 19.779c2.528 6.215 11.364 6.224 13.896 0l8.042-19.779 19.78-8.043C510.522 51.286 510.529 42.447 504.306 39.919zM469.537 58.898c-3.872-9.522-2.641-8.212-12.032-12.032 9.397-3.821 8.164-2.519 12.032-12.032 3.864 9.505 2.617 8.204 12.032 12.032C472.166 50.69 473.403 49.39 469.537 58.898z" fill="#ffb6d6" class="color000000 svgShape"></path>
</svg>
